# xmcd CD database file
#
# Track frame offsets:
#	150
#	21811
#	43267
#	60746
#	86232
#	106624
#	131901
#	153384
#	180086
#	196852
#	219666
#	244276
#	260702
#	280074
#	303662
#
# Disc length: 4317 seconds
#
# Revision: 0
# Processed by: cddbd v1.5.2PL0 Copyright (c) Steve Scherf et al.
# Submitted via: CDex 1.70beta3
#
DISCID=d710db0f
DTITLE=Mr. Big - Back To Budokan [Disc 1]
DYEAR=1900
DGENRE=ロック
TTITLE0=Daddy, Brother, Lover, Little Boy (The Electric Drill Song) [Live]
TTITLE1=Take Cover [Live]
TTITLE2=60 [Live]
TTITLE3=Alive And Kickin' [Live]
TTITLE4=Next Time Around [Live]
TTITLE5=Hold Your Head Up [Live]
TTITLE6=Just Take My Heart [Live]
TTITLE7=Temperamental [Live]
TTITLE8=It's For You ～Mars [Live]
TTITLE9=Pat Torpey Drum Solo [Live]
TTITLE10=Price You Gotta Pay [Live]
TTITLE11=Stay Together [Live]
TTITLE12=Wild World [Live]
TTITLE13=Goin' Where The Wind Blows [Live]
TTITLE14=Take A Walk [Live]
EXTD=
EXTT0=
EXTT1=
EXTT2=
EXTT3=
EXTT4=
EXTT5=
EXTT6=
EXTT7=
EXTT8=
EXTT9=
EXTT10=
EXTT11=
EXTT12=
EXTT13=
EXTT14=
PLAYORDER=
